<svg width="1572" height="183" viewBox="0 0 1572 183" fill="none" xmlns="http://www.w3.org/2000/svg">
<path d="M159.036 2.8572V180.517H109.644V109.201H49.4157V180.517H0.0236816V2.8572H49.4157V69.6372H109.644V2.8572H159.036Z" fill="#151F3B" fill-opacity="0.04"/>
<path d="M272.477 182.281C255.845 182.281 240.557 178.417 226.613 170.689C212.669 162.793 201.581 151.957 193.349 138.181C185.285 124.237 181.253 108.529 181.253 91.0572C181.253 73.5852 185.285 57.9612 193.349 44.1852C201.581 30.2412 212.669 19.4052 226.613 11.6772C240.557 3.94921 255.845 0.0852051 272.477 0.0852051C289.277 0.0852051 304.565 3.94921 318.341 11.6772C332.285 19.4052 343.289 30.2412 351.353 44.1852C359.417 57.9612 363.449 73.5852 363.449 91.0572C363.449 108.529 359.417 124.237 351.353 138.181C343.289 151.957 332.285 162.793 318.341 170.689C304.397 178.417 289.109 182.281 272.477 182.281ZM272.477 136.417C285.077 136.417 294.989 132.301 302.213 124.069C309.605 115.837 313.301 104.833 313.301 91.0572C313.301 76.9452 309.605 65.8572 302.213 57.7932C294.989 49.5612 285.077 45.4452 272.477 45.4452C259.709 45.4452 249.713 49.5612 242.489 57.7932C235.265 65.8572 231.653 76.9452 231.653 91.0572C231.653 105.001 235.265 116.089 242.489 124.321C249.713 132.385 259.709 136.417 272.477 136.417Z" fill="#151F3B" fill-opacity="0.04"/>
<path d="M593.049 2.8572V180.517H543.657V82.4892L510.141 180.517H468.813L435.045 81.7332V180.517H385.653V2.8572H445.377L489.981 118.273L533.577 2.8572H593.049Z" fill="#151F3B" fill-opacity="0.04"/>
<path d="M670.556 42.4212V71.4012H727.256V108.949H670.556V140.953H734.816V180.517H621.164V2.8572H734.816V42.4212H670.556Z" fill="#151F3B" fill-opacity="0.04"/>
<path d="M899.587 62.0772C899.587 72.8292 897.067 82.6572 892.027 91.5612C887.155 100.297 879.679 107.353 869.599 112.729C859.687 117.937 847.507 120.541 833.059 120.541H808.615V180.517H759.223V2.8572H833.059C847.339 2.8572 859.435 5.3772 869.347 10.4172C879.427 15.4572 886.987 22.4292 892.027 31.3332C897.067 40.2372 899.587 50.4852 899.587 62.0772ZM828.271 81.2292C842.215 81.2292 849.187 74.8452 849.187 62.0772C849.187 49.1412 842.215 42.6732 828.271 42.6732H808.615V81.2292H828.271Z" fill="#151F3B" fill-opacity="0.04"/>
<path d="M1031.82 151.537H968.822L959.246 180.517H907.334L972.098 2.8572H1029.05L1093.56 180.517H1041.4L1031.82 151.537ZM1019.47 113.737L1000.32 56.2812L981.422 113.737H1019.47Z" fill="#151F3B" fill-opacity="0.04"/>
<path d="M1223.06 61.3212C1220.2 56.6172 1216.26 53.0052 1211.22 50.4852C1206.34 47.9652 1200.55 46.7052 1193.83 46.7052C1181.4 46.7052 1171.57 50.7372 1164.34 58.8012C1157.29 66.8652 1153.76 77.7012 1153.76 91.3092C1153.76 106.597 1157.54 118.273 1165.1 126.337C1172.83 134.233 1184 138.181 1198.62 138.181C1215.92 138.181 1228.27 130.369 1235.66 114.745H1186.02V79.2132H1278.25V127.093C1274.38 136.501 1268.67 145.321 1261.11 153.553C1253.72 161.785 1244.31 168.589 1232.89 173.965C1221.46 179.173 1208.44 181.777 1193.83 181.777C1176.02 181.777 1160.23 177.997 1146.45 170.437C1132.84 162.709 1122.26 152.041 1114.7 138.433C1107.31 124.657 1103.61 108.949 1103.61 91.3092C1103.61 73.8372 1107.31 58.2972 1114.7 44.6892C1122.26 30.9132 1132.84 20.2452 1146.45 12.6852C1160.06 4.95721 1175.77 1.09321 1193.58 1.09321C1215.92 1.09321 1234.4 6.46921 1249.02 17.2212C1263.63 27.9732 1272.7 42.6732 1276.23 61.3212H1223.06Z" fill="#151F3B" fill-opacity="0.04"/>
<path d="M1349.78 42.4212V71.4012H1406.48V108.949H1349.78V140.953H1414.04V180.517H1300.38V2.8572H1414.04V42.4212H1349.78Z" fill="#151F3B" fill-opacity="0.04"/>
<path d="M1505.47 182.281C1484.81 182.281 1467.84 177.409 1454.57 167.665C1441.3 157.753 1434.16 143.641 1433.15 125.329H1485.82C1486.32 131.545 1488.17 136.081 1491.36 138.937C1494.55 141.793 1498.67 143.221 1503.71 143.221C1508.25 143.221 1511.94 142.129 1514.8 139.945C1517.82 137.593 1519.33 134.401 1519.33 130.369C1519.33 125.161 1516.9 121.129 1512.03 118.273C1507.15 115.417 1499.26 112.225 1488.34 108.697C1476.75 104.833 1467.34 101.137 1460.11 97.6092C1453.06 93.9132 1446.84 88.6212 1441.47 81.7332C1436.26 74.6772 1433.65 65.5212 1433.65 54.2652C1433.65 42.8412 1436.51 33.0972 1442.22 25.0332C1447.93 16.8012 1455.83 10.5852 1465.91 6.3852C1475.99 2.1852 1487.41 0.0852051 1500.18 0.0852051C1520.85 0.0852051 1537.31 4.9572 1549.57 14.7012C1562.01 24.2772 1568.64 37.8012 1569.48 55.2732H1515.81C1515.64 49.8972 1513.96 45.8652 1510.77 43.1772C1507.74 40.4892 1503.79 39.1452 1498.92 39.1452C1495.23 39.1452 1492.2 40.2372 1489.85 42.4212C1487.5 44.6052 1486.32 47.7132 1486.32 51.7452C1486.32 55.1052 1487.58 58.0452 1490.1 60.5652C1492.79 62.9172 1496.07 65.0172 1499.93 66.8652C1503.79 68.5452 1509.51 70.7292 1517.07 73.4172C1528.32 77.2812 1537.56 81.1452 1544.79 85.0092C1552.18 88.7052 1558.48 93.9972 1563.69 100.885C1569.06 107.605 1571.75 116.173 1571.75 126.589C1571.75 137.173 1569.06 146.665 1563.69 155.065C1558.48 163.465 1550.83 170.101 1540.75 174.973C1530.84 179.845 1519.08 182.281 1505.47 182.281Z" fill="#151F3B" fill-opacity="0.04"/>
</svg>
