<svg width="1434" height="183" viewBox="0 0 1434 183" fill="none" xmlns="http://www.w3.org/2000/svg">
<path d="M143.836 3.43813V42.7501H96.4597V181.098H47.0677V42.7501H0.195679V3.43813H143.836Z" fill="white" fill-opacity="0.03"/>
<path d="M211.502 43.0021V71.9821H268.202V109.53H211.502V141.534H275.762V181.098H162.11V3.43813H275.762V43.0021H211.502Z" fill="white" fill-opacity="0.03"/>
<path d="M507.564 3.43813V181.098H458.172V83.0701L424.656 181.098H383.328L349.56 82.3141V181.098H300.168V3.43813H359.892L404.496 118.854L448.092 3.43813H507.564Z" fill="white" fill-opacity="0.03"/>
<path d="M676.044 62.6581C676.044 73.4101 673.524 83.2381 668.484 92.1421C663.612 100.878 656.136 107.934 646.056 113.31C636.144 118.518 623.964 121.122 609.516 121.122H585.072V181.098H535.68V3.43813H609.516C623.796 3.43813 635.892 5.95814 645.804 10.9981C655.884 16.0381 663.444 23.0101 668.484 31.9141C673.524 40.8181 676.044 51.0661 676.044 62.6581ZM604.728 81.8101C618.672 81.8101 625.644 75.4261 625.644 62.6581C625.644 49.7221 618.672 43.2541 604.728 43.2541H585.072V81.8101H604.728Z" fill="white" fill-opacity="0.03"/>
<path d="M745.279 143.298H800.467V181.098H695.887V3.43813H745.279V143.298Z" fill="white" fill-opacity="0.03"/>
<path d="M932.064 152.118H869.064L859.488 181.098H807.576L872.34 3.43813H929.292L993.804 181.098H941.64L932.064 152.118ZM919.716 114.318L900.564 56.8621L881.664 114.318H919.716Z" fill="white" fill-opacity="0.03"/>
<path d="M1143.71 3.43813V42.7501H1096.34V181.098H1046.95V42.7501H1000.07V3.43813H1143.71Z" fill="white" fill-opacity="0.03"/>
<path d="M1211.38 43.0021V71.9821H1268.08V109.53H1211.38V141.534H1275.64V181.098H1161.99V3.43813H1275.64V43.0021H1211.38Z" fill="white" fill-opacity="0.03"/>
<path d="M1367.08 182.862C1346.42 182.862 1329.45 177.99 1316.18 168.246C1302.9 158.334 1295.76 144.222 1294.76 125.91H1347.42C1347.93 132.126 1349.78 136.662 1352.97 139.518C1356.16 142.374 1360.28 143.802 1365.32 143.802C1369.85 143.802 1373.55 142.71 1376.4 140.526C1379.43 138.174 1380.94 134.982 1380.94 130.95C1380.94 125.742 1378.5 121.71 1373.63 118.854C1368.76 115.998 1360.86 112.806 1349.94 109.278C1338.35 105.414 1328.94 101.718 1321.72 98.1901C1314.66 94.4941 1308.45 89.2021 1303.07 82.3141C1297.86 75.2581 1295.26 66.1021 1295.26 54.8461C1295.26 43.4221 1298.12 33.6781 1303.83 25.6141C1309.54 17.3821 1317.44 11.1661 1327.52 6.96613C1337.6 2.76614 1349.02 0.666138 1361.79 0.666138C1382.45 0.666138 1398.92 5.53813 1411.18 15.2821C1423.61 24.8581 1430.25 38.3821 1431.09 55.8541H1377.41C1377.24 50.4781 1375.56 46.4461 1372.37 43.7581C1369.35 41.0701 1365.4 39.7261 1360.53 39.7261C1356.83 39.7261 1353.81 40.8181 1351.46 43.0021C1349.1 45.1861 1347.93 48.2941 1347.93 52.3261C1347.93 55.6861 1349.19 58.6261 1351.71 61.1461C1354.4 63.4981 1357.67 65.5981 1361.54 67.4461C1365.4 69.1261 1371.11 71.3101 1378.67 73.9981C1389.93 77.8621 1399.17 81.7261 1406.39 85.5901C1413.78 89.2861 1420.08 94.5781 1425.29 101.466C1430.67 108.186 1433.36 116.754 1433.36 127.17C1433.36 137.754 1430.67 147.246 1425.29 155.646C1420.08 164.046 1412.44 170.682 1402.36 175.554C1392.45 180.426 1380.69 182.862 1367.08 182.862Z" fill="white" fill-opacity="0.03"/>
</svg>
